# xmcd
#
# Track frame offsets: 
#        150
#        9575
#        26167
#        39429
#        47328
#        50251
#        70097
#        76062
#        93649
#        97959
#        115594
#        124180
#        138515
#
# Disc length: 1978 seconds
#
# Revision: 0
# Processed by: cddbd v1.5.2PL0 Copyright (c) Steve Scherf et al.
# Submitted via: ExactAudioCopyFreeDBPlugin 1.0
#
DISCID=9c07b80d
DTITLE=Rebel Son - Queen Of All Trades
DYEAR=2012
DGENRE=Shockabilly
TTITLE0=All Horned Up
TTITLE1=Queen Of All Trades
TTITLE2=Line Me Up
TTITLE3=The Way I Remember You
TTITLE4=Don't Forget
TTITLE5=Wicked Queen
TTITLE6=Drunk Out
TTITLE7=40 West Woman
TTITLE8=Every Now And Then
TTITLE9=River Of Hate
TTITLE10=Out From Under You
TTITLE11=Sarah Jean, The Nuthouse Queen
TTITLE12=Worth One Thing
EXTD=
EXTT0=
EXTT1=
EXTT2=
EXTT3=
EXTT4=
EXTT5=
EXTT6=
EXTT7=
EXTT8=
EXTT9=
EXTT10=
EXTT11=
EXTT12=
PLAYORDER=
